<svg xmlns="http://www.w3.org/2000/svg" width="1200" height="675" viewBox="0 0 1200 675" role="img" aria-labelledby="title"><title id="title">3D scene review project placeholder</title><rect width="1200" height="675" fill="#0b1119"/><path d="M0 112h1200M0 225h1200M0 337h1200M0 450h1200M0 562h1200M150 0v675M300 0v675M450 0v675M600 0v675M750 0v675M900 0v675M1050 0v675" stroke="#172534"/><g fill="none" stroke="#5abceb" stroke-width="4"><path d="M600 130l270 145v265L600 405 330 540V275zM600 130v275M330 275l270 130 270-130M330 540l270-135 270 135"/><path d="M175 335c30-165 180-285 350-300M1025 335c-30 165-180 285-350 300"/></g><g fill="#c9a86a"><circle cx="600" cy="130" r="10"/><circle cx="330" cy="540" r="10"/><circle cx="870" cy="540" r="10"/></g><text x="72" y="610" fill="#7f8ea0" font-family="Arial,sans-serif" font-size="22" letter-spacing="7">PROJECT VISUAL / 02</text></svg>
