<svg xmlns="http://www.w3.org/2000/svg" width="1200" height="675" viewBox="0 0 1200 675" role="img" aria-labelledby="title"><title id="title">Enterprise monitoring project placeholder</title><rect width="1200" height="675" fill="#0b1119"/><path d="M0 96h1200M0 192h1200M0 288h1200M0 384h1200M0 480h1200M0 576h1200M120 0v675M240 0v675M360 0v675M480 0v675M600 0v675M720 0v675M840 0v675M960 0v675M1080 0v675" stroke="#172534"/><g fill="none" stroke="#5abceb" stroke-width="4"><rect x="190" y="140" width="250" height="380"/><path d="M225 205h180M225 275h180M225 345h180M225 415h180M440 330h125l55-100 85 215 70-115h235"/><circle cx="910" cy="330" r="90"/><path d="M870 330l28 28 55-70"/></g><g fill="#c9a86a"><circle cx="380" cy="205" r="8"/><circle cx="380" cy="275" r="8"/><circle cx="380" cy="345" r="8"/></g><text x="72" y="610" fill="#7f8ea0" font-family="Arial,sans-serif" font-size="22" letter-spacing="7">PROJECT VISUAL / 05</text></svg>
