<svg xmlns="http://www.w3.org/2000/svg" width="1200" height="675" viewBox="0 0 1200 675" role="img" aria-labelledby="title"><title id="title">Enterprise authentication project placeholder</title><rect width="1200" height="675" fill="#0b1119"/><path d="M0 112h1200M0 225h1200M0 337h1200M0 450h1200M0 562h1200M150 0v675M300 0v675M450 0v675M600 0v675M750 0v675M900 0v675M1050 0v675" stroke="#172534"/><g fill="none" stroke="#5abceb" stroke-width="4"><circle cx="600" cy="320" r="120"/><circle cx="600" cy="280" r="40"/><path d="M525 380c20-55 130-55 150 0M480 320H285M720 320h195M600 200V105M600 440v95"/><rect x="175" y="255" width="110" height="130"/><rect x="915" y="255" width="110" height="130"/><rect x="545" y="35" width="110" height="70"/><rect x="545" y="535" width="110" height="70"/></g><g fill="#c9a86a"><circle cx="480" cy="320" r="10"/><circle cx="720" cy="320" r="10"/></g><text x="72" y="640" fill="#7f8ea0" font-family="Arial,sans-serif" font-size="22" letter-spacing="7">PROJECT VISUAL / 06</text></svg>
