<svg xmlns="http://www.w3.org/2000/svg" width="1200" height="675" viewBox="0 0 1200 675" role="img" aria-labelledby="title"><title id="title">Project governance framework placeholder</title><rect width="1200" height="675" fill="#0b1119"/><path d="M0 112h1200M0 225h1200M0 337h1200M0 450h1200M0 562h1200M150 0v675M300 0v675M450 0v675M600 0v675M750 0v675M900 0v675M1050 0v675" stroke="#172534"/><g fill="none" stroke="#5abceb" stroke-width="4"><rect x="100" y="270" width="160" height="120"/><rect x="310" y="270" width="160" height="120"/><rect x="520" y="270" width="160" height="120"/><rect x="730" y="270" width="160" height="120"/><rect x="940" y="270" width="160" height="120"/><path d="M260 330h50M470 330h50M680 330h50M890 330h50M180 270V175h840v95"/></g><g fill="#c9a86a"><circle cx="285" cy="330" r="9"/><circle cx="495" cy="330" r="9"/><circle cx="705" cy="330" r="9"/><circle cx="915" cy="330" r="9"/></g><text x="72" y="610" fill="#7f8ea0" font-family="Arial,sans-serif" font-size="22" letter-spacing="7">PROJECT VISUAL / 10</text></svg>
