<svg xmlns="http://www.w3.org/2000/svg" width="1200" height="675" viewBox="0 0 1200 675" role="img" aria-labelledby="title"><title id="title">Secure password vault project placeholder</title><rect width="1200" height="675" fill="#0b1119"/><path d="M0 112h1200M0 225h1200M0 337h1200M0 450h1200M0 562h1200M150 0v675M300 0v675M450 0v675M600 0v675M750 0v675M900 0v675M1050 0v675" stroke="#172534"/><g fill="none" stroke="#5abceb" stroke-width="4"><rect x="355" y="210" width="490" height="350"/><path d="M475 210v-70c0-165 250-165 250 0v70M600 325a55 55 0 0 0-25 104v60h50v-60a55 55 0 0 0-25-104zM355 385H225M845 385h130"/><circle cx="175" cy="385" r="50"/><circle cx="1025" cy="385" r="50"/></g><g fill="#c9a86a"><circle cx="355" cy="385" r="10"/><circle cx="845" cy="385" r="10"/></g><text x="72" y="625" fill="#7f8ea0" font-family="Arial,sans-serif" font-size="22" letter-spacing="7">PROJECT VISUAL / 12</text></svg>
